<mxfile host="app.diagrams.net" modified="2024-03-19T06:20:32.501Z" agent="Mozilla/5.0 (Windows NT 10.0; Win64; x64) AppleWebKit/537.36 (KHTML, like Gecko) Chrome/122.0.0.0 Safari/537.36 Edg/122.0.0.0" etag="06WXMEZLQui-NJcgLPK9" version="24.0.7" type="device">
  <diagram name="Page-1" id="mguCj2cKq7bsOL97bhls">
    <mxGraphModel dx="1615" dy="882" grid="1" gridSize="10" guides="1" tooltips="1" connect="1" arrows="1" fold="1" page="1" pageScale="1" pageWidth="850" pageHeight="1100" math="0" shadow="0">
      <root>
        <mxCell id="0" />
        <mxCell id="1" parent="0" />
        <mxCell id="fIXFhrKanXtExy9UGcHT-5" value="" style="whiteSpace=wrap;html=1;aspect=fixed;fillColor=none;" parent="1" vertex="1">
          <mxGeometry x="176.5" y="47" width="593" height="593" as="geometry" />
        </mxCell>
        <mxCell id="fIXFhrKanXtExy9UGcHT-4" value="Менеджер" style="shape=umlActor;verticalLabelPosition=bottom;verticalAlign=top;html=1;outlineConnect=0;" parent="1" vertex="1">
          <mxGeometry x="800" y="285" width="30" height="60" as="geometry" />
        </mxCell>
        <mxCell id="fIXFhrKanXtExy9UGcHT-6" value="&lt;font style=&quot;font-size: 14px;&quot;&gt;Система авиакомпании&lt;/font&gt;" style="text;html=1;strokeColor=none;fillColor=none;align=center;verticalAlign=middle;whiteSpace=wrap;rounded=0;strokeWidth=3;" parent="1" vertex="1">
          <mxGeometry x="180" y="53" width="160" height="30" as="geometry" />
        </mxCell>
        <mxCell id="fIXFhrKanXtExy9UGcHT-9" value="" style="ellipse;whiteSpace=wrap;html=1;" parent="1" vertex="1">
          <mxGeometry x="231.75" y="513.75" width="120" height="52.5" as="geometry" />
        </mxCell>
        <mxCell id="fIXFhrKanXtExy9UGcHT-10" value="Поиск рейса с условием" style="text;html=1;strokeColor=none;fillColor=none;align=center;verticalAlign=middle;whiteSpace=wrap;rounded=0;" parent="1" vertex="1">
          <mxGeometry x="239.75" y="522.5" width="110" height="35" as="geometry" />
        </mxCell>
        <mxCell id="fIXFhrKanXtExy9UGcHT-11" value="" style="ellipse;whiteSpace=wrap;html=1;" parent="1" vertex="1">
          <mxGeometry x="370" y="402" width="130" height="70" as="geometry" />
        </mxCell>
        <mxCell id="fIXFhrKanXtExy9UGcHT-12" value="Просмотр детальной информации о рейсах" style="text;html=1;strokeColor=none;fillColor=none;align=center;verticalAlign=middle;whiteSpace=wrap;rounded=0;" parent="1" vertex="1">
          <mxGeometry x="377" y="422" width="120" height="35" as="geometry" />
        </mxCell>
        <mxCell id="fIXFhrKanXtExy9UGcHT-14" style="edgeStyle=orthogonalEdgeStyle;rounded=0;orthogonalLoop=1;jettySize=auto;html=1;exitX=0.5;exitY=1;exitDx=0;exitDy=0;" parent="1" source="fIXFhrKanXtExy9UGcHT-12" target="fIXFhrKanXtExy9UGcHT-12" edge="1">
          <mxGeometry relative="1" as="geometry" />
        </mxCell>
        <mxCell id="fIXFhrKanXtExy9UGcHT-15" value="" style="ellipse;whiteSpace=wrap;html=1;" parent="1" vertex="1">
          <mxGeometry x="282" y="130.5" width="120" height="52.5" as="geometry" />
        </mxCell>
        <mxCell id="fIXFhrKanXtExy9UGcHT-16" value="Бронирование&lt;br&gt;билета" style="text;html=1;strokeColor=none;fillColor=none;align=center;verticalAlign=middle;whiteSpace=wrap;rounded=0;" parent="1" vertex="1">
          <mxGeometry x="288.75" y="139.25" width="110" height="35" as="geometry" />
        </mxCell>
        <mxCell id="fIXFhrKanXtExy9UGcHT-23" value="&amp;lt;&amp;lt;расширить" style="endArrow=classic;html=1;rounded=0;dashed=1;dashPattern=8 8;exitX=0.584;exitY=-0.034;exitDx=0;exitDy=0;entryX=0.206;entryY=0.933;entryDx=0;entryDy=0;entryPerimeter=0;startArrow=none;startFill=0;endFill=1;exitPerimeter=0;" parent="1" source="fIXFhrKanXtExy9UGcHT-9" target="fIXFhrKanXtExy9UGcHT-11" edge="1">
          <mxGeometry width="50" height="50" relative="1" as="geometry">
            <mxPoint x="450" y="440" as="sourcePoint" />
            <mxPoint x="520" y="130" as="targetPoint" />
          </mxGeometry>
        </mxCell>
        <mxCell id="fIXFhrKanXtExy9UGcHT-26" value="" style="ellipse;whiteSpace=wrap;html=1;" parent="1" vertex="1">
          <mxGeometry x="416" y="496.5" width="120" height="80" as="geometry" />
        </mxCell>
        <mxCell id="fIXFhrKanXtExy9UGcHT-27" value="Мониторинг пользователей, истории полётов авиапарка" style="text;html=1;strokeColor=none;fillColor=none;align=center;verticalAlign=middle;whiteSpace=wrap;rounded=0;" parent="1" vertex="1">
          <mxGeometry x="421" y="512.25" width="110" height="46.5" as="geometry" />
        </mxCell>
        <mxCell id="fIXFhrKanXtExy9UGcHT-29" value="" style="ellipse;whiteSpace=wrap;html=1;" parent="1" vertex="1">
          <mxGeometry x="524.25" y="384" width="120" height="68.75" as="geometry" />
        </mxCell>
        <mxCell id="fIXFhrKanXtExy9UGcHT-30" value="Добавление новых рейсов и самолётов" style="text;html=1;strokeColor=none;fillColor=none;align=center;verticalAlign=middle;whiteSpace=wrap;rounded=0;" parent="1" vertex="1">
          <mxGeometry x="530.25" y="402" width="110" height="35" as="geometry" />
        </mxCell>
        <mxCell id="fIXFhrKanXtExy9UGcHT-32" value="" style="ellipse;whiteSpace=wrap;html=1;" parent="1" vertex="1">
          <mxGeometry x="524.25" y="566.25" width="127.75" height="60" as="geometry" />
        </mxCell>
        <mxCell id="fIXFhrKanXtExy9UGcHT-33" value="Добавление новых транспортных узлов" style="text;html=1;strokeColor=none;fillColor=none;align=center;verticalAlign=middle;whiteSpace=wrap;rounded=0;" parent="1" vertex="1">
          <mxGeometry x="536" y="581.25" width="110" height="35" as="geometry" />
        </mxCell>
        <mxCell id="fIXFhrKanXtExy9UGcHT-34" value="&amp;lt;&amp;lt;включить&amp;gt;&amp;gt;" style="endArrow=classic;html=1;rounded=0;exitX=0;exitY=0.5;exitDx=0;exitDy=0;entryX=1;entryY=0.5;entryDx=0;entryDy=0;dashed=1;dashPattern=12 12;" parent="1" source="FuzL7vB3-GdBhuAkuZn--3" target="fIXFhrKanXtExy9UGcHT-26" edge="1">
          <mxGeometry width="50" height="50" relative="1" as="geometry">
            <mxPoint x="131.5" y="370" as="sourcePoint" />
            <mxPoint x="174" y="383.75" as="targetPoint" />
          </mxGeometry>
        </mxCell>
        <mxCell id="FuzL7vB3-GdBhuAkuZn--1" value="Гость" style="shape=umlActor;verticalLabelPosition=bottom;verticalAlign=top;html=1;outlineConnect=0;" parent="1" vertex="1">
          <mxGeometry x="85" y="364" width="30" height="60" as="geometry" />
        </mxCell>
        <mxCell id="FuzL7vB3-GdBhuAkuZn--2" value="" style="ellipse;whiteSpace=wrap;html=1;" parent="1" vertex="1">
          <mxGeometry x="621.5" y="480" width="120" height="60" as="geometry" />
        </mxCell>
        <mxCell id="FuzL7vB3-GdBhuAkuZn--3" value="Управление данными таблиц&lt;br&gt;,базы данных" style="text;html=1;strokeColor=none;fillColor=none;align=center;verticalAlign=middle;whiteSpace=wrap;rounded=0;" parent="1" vertex="1">
          <mxGeometry x="628.5" y="491" width="110" height="35" as="geometry" />
        </mxCell>
        <mxCell id="FuzL7vB3-GdBhuAkuZn--6" value="&amp;lt;&amp;lt;включить&amp;gt;&amp;gt;" style="endArrow=none;html=1;rounded=0;dashed=1;dashPattern=8 8;entryX=0.331;entryY=0.021;entryDx=0;entryDy=0;exitX=1;exitY=0.75;exitDx=0;exitDy=0;startArrow=classic;startFill=1;endFill=0;entryPerimeter=0;" parent="1" source="fIXFhrKanXtExy9UGcHT-30" target="FuzL7vB3-GdBhuAkuZn--2" edge="1">
          <mxGeometry width="50" height="50" relative="1" as="geometry">
            <mxPoint x="428" y="457" as="sourcePoint" />
            <mxPoint x="305" y="488" as="targetPoint" />
          </mxGeometry>
        </mxCell>
        <mxCell id="FuzL7vB3-GdBhuAkuZn--10" value="" style="endArrow=none;html=1;rounded=0;dashed=1;dashPattern=8 8;entryX=0.5;entryY=1;entryDx=0;entryDy=0;exitX=1;exitY=0;exitDx=0;exitDy=0;startArrow=classic;startFill=1;endFill=0;" parent="1" source="fIXFhrKanXtExy9UGcHT-33" target="FuzL7vB3-GdBhuAkuZn--2" edge="1">
          <mxGeometry width="50" height="50" relative="1" as="geometry">
            <mxPoint x="359" y="520" as="sourcePoint" />
            <mxPoint x="310" y="505" as="targetPoint" />
          </mxGeometry>
        </mxCell>
        <mxCell id="BXLtOzAw0ua5U1XKGLMx-23" value="&amp;lt;&amp;lt;включить&amp;gt;&amp;gt;" style="edgeLabel;html=1;align=center;verticalAlign=middle;resizable=0;points=[];" parent="FuzL7vB3-GdBhuAkuZn--10" vertex="1" connectable="0">
          <mxGeometry x="0.0152" y="4" relative="1" as="geometry">
            <mxPoint as="offset" />
          </mxGeometry>
        </mxCell>
        <mxCell id="FuzL7vB3-GdBhuAkuZn--20" value="" style="ellipse;whiteSpace=wrap;html=1;" parent="1" vertex="1">
          <mxGeometry x="445" y="190.5" width="120" height="60" as="geometry" />
        </mxCell>
        <mxCell id="FuzL7vB3-GdBhuAkuZn--21" value="Просмотр статуса бронирования" style="text;html=1;strokeColor=none;fillColor=none;align=center;verticalAlign=middle;whiteSpace=wrap;rounded=0;" parent="1" vertex="1">
          <mxGeometry x="455" y="199.62" width="100" height="40" as="geometry" />
        </mxCell>
        <mxCell id="NVLafLpXbPiG_5Q_J254-3" value="" style="ellipse;whiteSpace=wrap;html=1;" parent="1" vertex="1">
          <mxGeometry x="577" y="100" width="120" height="60" as="geometry" />
        </mxCell>
        <mxCell id="NVLafLpXbPiG_5Q_J254-4" value="Получение электронного билета" style="text;html=1;strokeColor=none;fillColor=none;align=center;verticalAlign=middle;whiteSpace=wrap;rounded=0;" parent="1" vertex="1">
          <mxGeometry x="587" y="109.12" width="100" height="40" as="geometry" />
        </mxCell>
        <mxCell id="NVLafLpXbPiG_5Q_J254-5" value="&amp;lt;&amp;lt;расширить&amp;gt;&amp;gt;" style="endArrow=none;html=1;rounded=0;dashed=1;exitX=0;exitY=1;exitDx=0;exitDy=0;entryX=1;entryY=0;entryDx=0;entryDy=0;dashPattern=8 8;startArrow=classic;startFill=1;endFill=0;" parent="1" source="NVLafLpXbPiG_5Q_J254-3" target="FuzL7vB3-GdBhuAkuZn--21" edge="1">
          <mxGeometry width="50" height="50" relative="1" as="geometry">
            <mxPoint x="602" y="386" as="sourcePoint" />
            <mxPoint x="571.28" y="246.01750000000004" as="targetPoint" />
          </mxGeometry>
        </mxCell>
        <mxCell id="oyBCzraLeomTohdA8HDh-11" value="" style="endArrow=block;html=1;rounded=0;endFill=0;" parent="1" edge="1">
          <mxGeometry width="50" height="50" relative="1" as="geometry">
            <mxPoint x="100" y="211" as="sourcePoint" />
            <mxPoint x="100" y="361" as="targetPoint" />
          </mxGeometry>
        </mxCell>
        <mxCell id="oyBCzraLeomTohdA8HDh-13" value="" style="endArrow=classic;html=1;rounded=0;endFill=1;entryX=0;entryY=0.5;entryDx=0;entryDy=0;" parent="1" target="fIXFhrKanXtExy9UGcHT-9" edge="1">
          <mxGeometry width="50" height="50" relative="1" as="geometry">
            <mxPoint x="120" y="390" as="sourcePoint" />
            <mxPoint x="231.75" y="364" as="targetPoint" />
          </mxGeometry>
        </mxCell>
        <mxCell id="oyBCzraLeomTohdA8HDh-18" value="" style="endArrow=none;html=1;rounded=0;endFill=0;exitX=0.781;exitY=0.055;exitDx=0;exitDy=0;exitPerimeter=0;startArrow=classic;startFill=1;" parent="1" source="FuzL7vB3-GdBhuAkuZn--2" edge="1">
          <mxGeometry width="50" height="50" relative="1" as="geometry">
            <mxPoint x="720" y="512.5" as="sourcePoint" />
            <mxPoint x="790" y="320" as="targetPoint" />
          </mxGeometry>
        </mxCell>
        <mxCell id="oyBCzraLeomTohdA8HDh-22" value="" style="endArrow=classic;html=1;rounded=0;endFill=1;entryX=0;entryY=0.5;entryDx=0;entryDy=0;" parent="1" target="fIXFhrKanXtExy9UGcHT-15" edge="1">
          <mxGeometry width="50" height="50" relative="1" as="geometry">
            <mxPoint x="120" y="146" as="sourcePoint" />
            <mxPoint x="280" y="170" as="targetPoint" />
          </mxGeometry>
        </mxCell>
        <mxCell id="BXLtOzAw0ua5U1XKGLMx-1" value="" style="ellipse;whiteSpace=wrap;html=1;" parent="1" vertex="1">
          <mxGeometry x="592" y="260" width="120" height="60" as="geometry" />
        </mxCell>
        <mxCell id="BXLtOzAw0ua5U1XKGLMx-2" value="Отмена бронирования" style="text;html=1;strokeColor=none;fillColor=none;align=center;verticalAlign=middle;whiteSpace=wrap;rounded=0;" parent="1" vertex="1">
          <mxGeometry x="602" y="269.12" width="100" height="40" as="geometry" />
        </mxCell>
        <mxCell id="BXLtOzAw0ua5U1XKGLMx-6" value="&amp;lt;&amp;lt;расширить&amp;gt;&amp;gt;" style="endArrow=none;html=1;rounded=0;dashed=1;exitX=0.042;exitY=0.373;exitDx=0;exitDy=0;entryX=1;entryY=0.5;entryDx=0;entryDy=0;exitPerimeter=0;dashPattern=8 8;startArrow=classic;startFill=1;endFill=0;" parent="1" source="FuzL7vB3-GdBhuAkuZn--20" target="fIXFhrKanXtExy9UGcHT-16" edge="1">
          <mxGeometry width="50" height="50" relative="1" as="geometry">
            <mxPoint x="500.75" y="121.12" as="sourcePoint" />
            <mxPoint x="398.75" y="147.12" as="targetPoint" />
          </mxGeometry>
        </mxCell>
        <mxCell id="BXLtOzAw0ua5U1XKGLMx-7" value="&amp;lt;&amp;lt;расширить&amp;gt;&amp;gt;" style="endArrow=none;html=1;rounded=0;dashed=1;exitX=0;exitY=0.5;exitDx=0;exitDy=0;entryX=0.989;entryY=0.627;entryDx=0;entryDy=0;dashPattern=8 8;startArrow=classic;startFill=1;endFill=0;entryPerimeter=0;" parent="1" source="BXLtOzAw0ua5U1XKGLMx-1" target="FuzL7vB3-GdBhuAkuZn--20" edge="1">
          <mxGeometry width="50" height="50" relative="1" as="geometry">
            <mxPoint x="634" y="193" as="sourcePoint" />
            <mxPoint x="532" y="219" as="targetPoint" />
          </mxGeometry>
        </mxCell>
        <mxCell id="BXLtOzAw0ua5U1XKGLMx-17" value="" style="ellipse;whiteSpace=wrap;html=1;" parent="1" vertex="1">
          <mxGeometry x="266.5" y="227.5" width="121.5" height="57.5" as="geometry" />
        </mxCell>
        <mxCell id="BXLtOzAw0ua5U1XKGLMx-18" value="Авторизация" style="text;html=1;strokeColor=none;fillColor=none;align=center;verticalAlign=middle;whiteSpace=wrap;rounded=0;" parent="1" vertex="1">
          <mxGeometry x="272.25" y="239" width="110" height="35" as="geometry" />
        </mxCell>
        <mxCell id="BXLtOzAw0ua5U1XKGLMx-19" value="" style="endArrow=classic;html=1;rounded=0;endFill=1;entryX=0;entryY=0;entryDx=0;entryDy=0;" parent="1" target="BXLtOzAw0ua5U1XKGLMx-17" edge="1">
          <mxGeometry width="50" height="50" relative="1" as="geometry">
            <mxPoint x="120" y="160" as="sourcePoint" />
            <mxPoint x="184.25" y="164.62" as="targetPoint" />
          </mxGeometry>
        </mxCell>
        <mxCell id="fIXFhrKanXtExy9UGcHT-1" value="Авторизованный&lt;br&gt;пользователь" style="shape=umlActor;verticalLabelPosition=bottom;verticalAlign=top;html=1;outlineConnect=0;" parent="1" vertex="1">
          <mxGeometry x="86" y="114" width="30" height="60" as="geometry" />
        </mxCell>
        <mxCell id="BXLtOzAw0ua5U1XKGLMx-20" value="" style="ellipse;whiteSpace=wrap;html=1;" parent="1" vertex="1">
          <mxGeometry x="190" y="410" width="120" height="52.5" as="geometry" />
        </mxCell>
        <mxCell id="BXLtOzAw0ua5U1XKGLMx-21" value="Регистрация" style="text;html=1;strokeColor=none;fillColor=none;align=center;verticalAlign=middle;whiteSpace=wrap;rounded=0;" parent="1" vertex="1">
          <mxGeometry x="198" y="418.75" width="110" height="35" as="geometry" />
        </mxCell>
        <mxCell id="BXLtOzAw0ua5U1XKGLMx-22" value="" style="endArrow=classic;html=1;rounded=0;endFill=1;entryX=0;entryY=0.5;entryDx=0;entryDy=0;" parent="1" target="BXLtOzAw0ua5U1XKGLMx-20" edge="1">
          <mxGeometry width="50" height="50" relative="1" as="geometry">
            <mxPoint x="120" y="380" as="sourcePoint" />
            <mxPoint x="205.75" y="267.5" as="targetPoint" />
          </mxGeometry>
        </mxCell>
        <mxCell id="zx8bBiUMf9OdoMaOfaqo-1" value="" style="ellipse;whiteSpace=wrap;html=1;" vertex="1" parent="1">
          <mxGeometry x="272.63" y="320" width="142.25" height="70" as="geometry" />
        </mxCell>
        <mxCell id="zx8bBiUMf9OdoMaOfaqo-2" value="Просмотр информационных статей и правл авиаперевозок" style="text;html=1;strokeColor=none;fillColor=none;align=center;verticalAlign=middle;whiteSpace=wrap;rounded=0;" vertex="1" parent="1">
          <mxGeometry x="290.88" y="336.25" width="110" height="35" as="geometry" />
        </mxCell>
        <mxCell id="zx8bBiUMf9OdoMaOfaqo-3" value="" style="endArrow=classic;html=1;rounded=0;endFill=1;entryX=0;entryY=0.5;entryDx=0;entryDy=0;" edge="1" parent="1" target="zx8bBiUMf9OdoMaOfaqo-1">
          <mxGeometry width="50" height="50" relative="1" as="geometry">
            <mxPoint x="120" y="370" as="sourcePoint" />
            <mxPoint x="200" y="446" as="targetPoint" />
          </mxGeometry>
        </mxCell>
      </root>
    </mxGraphModel>
  </diagram>
</mxfile>
